<svg width="128" height="128" viewBox="0 0 128 128" fill="none" xmlns="http://www.w3.org/2000/svg">
<rect width="128" height="128" rx="24" fill="white"/>
<path fill-rule="evenodd" clip-rule="evenodd" d="M45.4021 79.6877L31.2621 87.7765L63.9912 106.5L96.713 87.7838L15.5215 41.3313C14.8828 40.9676 14.6626 40.1602 15.0297 39.5346C15.1545 39.3237 15.3233 39.1564 15.5215 39.0473L63.3304 11.6966C63.7636 11.4493 64.2702 11.4711 64.6666 11.7039L112.461 39.0473C113.1 39.411 113.32 40.2184 112.953 40.844C112.828 41.0549 112.659 41.2222 112.461 41.3313L87.0146 55.8868C86.3759 56.2505 85.5683 56.0323 85.2012 55.4067L82.0884 50.0748C81.7213 49.442 81.9342 48.6345 82.5729 48.2708L96.7276 40.1747L63.9912 21.4584L31.2694 40.182L112.468 86.6345C113.107 86.9982 113.32 87.8056 112.953 88.4385C112.813 88.6713 112.622 88.8458 112.395 88.9622L64.6519 116.277C64.2188 116.524 63.7122 116.502 63.3157 116.269L15.5215 88.9186C14.8828 88.5549 14.6626 87.7475 15.0297 87.1219C15.1545 86.9109 15.3233 86.7509 15.5142 86.6418L40.9751 72.0717C41.6138 71.708 42.4287 71.919 42.7958 72.5518L42.8399 72.6318L45.8866 77.891C46.2537 78.5239 46.0335 79.324 45.3948 79.6877H45.4021Z" fill="#0000EE"/>
<path fill-rule="evenodd" clip-rule="evenodd" d="M45.5249 72.1376L63.9965 82.7069L82.424 72.1667C82.4681 72.1303 82.5195 72.1012 82.5709 72.0721L96.7109 63.9906L82.5709 55.9018C82.5268 55.8799 82.4828 55.8509 82.4461 55.8218L64.0038 45.2743L52.081 52.0974L43.2122 47.0273L63.3357 35.5124C63.7909 35.2505 64.3342 35.2869 64.7453 35.5561L86.8657 48.213C86.9538 48.2494 87.0346 48.293 87.108 48.344L112.488 62.8631C113.127 63.2268 113.34 64.0342 112.973 64.6671C112.848 64.878 112.679 65.0381 112.481 65.1545L87.0346 79.71C86.9905 79.7391 86.9391 79.7609 86.8951 79.7827L64.6719 92.4979C64.2387 92.7452 63.7322 92.7234 63.3357 92.4906L61.8013 91.6177L41.1492 79.8045C41.0611 79.7682 40.9804 79.7245 40.907 79.6736L15.5122 65.1254C14.8734 64.7616 14.6605 63.9542 15.0276 63.3214C15.1524 63.1104 15.3213 62.9504 15.5195 62.834L34.3141 52.0829L43.1976 57.1675L31.2747 63.9833L45.4147 72.0721L45.5175 72.1376H45.5249Z" fill="#4589FF"/>
</svg>
