<svg width="209" height="64" viewBox="0 0 209 64" fill="none" xmlns="http://www.w3.org/2000/svg">
<mask id="path-1-outside-1_2054_46" maskUnits="userSpaceOnUse" x="78.0281" y="19.8013" width="131" height="30" fill="black">
<rect fill="white" x="78.0281" y="19.8013" width="131" height="30"/>
<path d="M86.451 43.4005C84.748 43.4005 83.2955 43.0799 82.0934 42.4388C80.8913 41.7777 79.8695 40.8761 79.0281 39.7341L80.8913 38.1714C81.6326 39.1531 82.454 39.9044 83.3556 40.4253C84.2571 40.9262 85.319 41.1766 86.5411 41.1766C88.0437 41.1766 89.1857 40.816 89.9671 40.0947C90.7684 39.3735 91.1691 38.4118 91.1691 37.2097C91.1691 36.208 90.8686 35.4367 90.2676 34.8957C89.6665 34.3548 88.6748 33.924 87.2924 33.6035L85.5794 33.2128C83.6561 32.772 82.1836 32.1109 81.1618 31.2294C80.16 30.3278 79.6592 29.0656 79.6592 27.4428C79.6592 26.5212 79.8295 25.6998 80.1701 24.9785C80.5106 24.2573 80.9815 23.6562 81.5825 23.1754C82.2036 22.6946 82.9349 22.3339 83.7763 22.0935C84.6378 21.8331 85.5794 21.7028 86.6012 21.7028C88.184 21.7028 89.5363 21.9933 90.6583 22.5743C91.8002 23.1554 92.7619 24.0068 93.5433 25.1288L91.65 26.5112C91.069 25.7098 90.3678 25.0787 89.5463 24.6179C88.7249 24.1571 87.7031 23.9267 86.481 23.9267C85.1387 23.9267 84.0768 24.2172 83.2955 24.7982C82.5342 25.3592 82.1535 26.2107 82.1535 27.3526C82.1535 28.3544 82.4741 29.1157 83.1152 29.6366C83.7763 30.1375 84.768 30.5382 86.0903 30.8387L87.8033 31.2294C89.8669 31.6902 91.3595 32.3914 92.2811 33.333C93.2027 34.2746 93.6635 35.5268 93.6635 37.0895C93.6635 38.0512 93.4932 38.9227 93.1526 39.7041C92.832 40.4854 92.3612 41.1466 91.7401 41.6875C91.1191 42.2284 90.3577 42.6492 89.4562 42.9497C88.5746 43.2502 87.5729 43.4005 86.451 43.4005Z"/>
<path d="M100.607 43.0399C99.7657 43.0399 99.1246 42.8095 98.6838 42.3487C98.2631 41.8678 98.0527 41.2467 98.0527 40.4854V29.6366H95.4983V27.5329H96.9408C97.4617 27.5329 97.8123 27.4328 97.9926 27.2324C98.193 27.012 98.2931 26.6414 98.2931 26.1205V23.2355H100.457V27.5329H103.853V29.6366H100.457V40.9362H103.612V43.0399H100.607Z"/>
<path d="M118.386 43.0399C117.484 43.0399 116.833 42.7994 116.432 42.3186C116.052 41.8378 115.811 41.2367 115.711 40.5155H115.561C115.22 41.4771 114.659 42.1984 113.878 42.6792C113.096 43.1601 112.165 43.4005 111.083 43.4005C109.44 43.4005 108.158 42.9798 107.236 42.1383C106.335 41.2968 105.884 40.1549 105.884 38.7123C105.884 37.2498 106.415 36.1279 107.477 35.3465C108.559 34.5652 110.231 34.1745 112.495 34.1745H115.561V32.6418C115.561 31.5399 115.26 30.6984 114.659 30.1174C114.058 29.5364 113.136 29.2459 111.894 29.2459C110.953 29.2459 110.161 29.4563 109.52 29.877C108.899 30.2977 108.378 30.8587 107.957 31.5599L106.515 30.2076C106.936 29.3661 107.607 28.6549 108.528 28.0739C109.45 27.4728 110.612 27.1723 112.015 27.1723C113.898 27.1723 115.36 27.6331 116.402 28.5547C117.444 29.4763 117.965 30.7585 117.965 32.4014V40.9362H119.738V43.0399H118.386ZM111.474 41.3569C112.075 41.3569 112.626 41.2868 113.126 41.1466C113.627 41.0063 114.058 40.806 114.419 40.5455C114.779 40.2851 115.06 39.9846 115.26 39.644C115.461 39.3034 115.561 38.9327 115.561 38.532V35.9776H112.375C110.993 35.9776 109.981 36.1779 109.34 36.5786C108.719 36.9793 108.408 37.5603 108.408 38.3217V38.9528C108.408 39.7141 108.679 40.3051 109.22 40.7258C109.781 41.1466 110.532 41.3569 111.474 41.3569Z"/>
<path d="M128.338 43.4005C127.256 43.4005 126.285 43.2102 125.423 42.8295C124.562 42.4488 123.83 41.9079 123.229 41.2067C122.648 40.5055 122.198 39.654 121.877 38.6522C121.577 37.6505 121.426 36.5286 121.426 35.2864C121.426 34.0442 121.577 32.9223 121.877 31.9206C122.198 30.9188 122.648 30.0673 123.229 29.3661C123.83 28.6649 124.562 28.124 125.423 27.7433C126.285 27.3627 127.256 27.1723 128.338 27.1723C129.881 27.1723 131.113 27.5129 132.035 28.1941C132.976 28.8552 133.678 29.7268 134.138 30.8086L132.125 31.8304C131.844 31.029 131.384 30.4079 130.742 29.9672C130.101 29.5264 129.3 29.306 128.338 29.306C127.617 29.306 126.986 29.4262 126.445 29.6667C125.904 29.887 125.453 30.2076 125.093 30.6283C124.732 31.029 124.462 31.5199 124.281 32.1009C124.101 32.6618 124.011 33.2829 124.011 33.9641V36.6087C124.011 37.9711 124.371 39.093 125.093 39.9745C125.834 40.836 126.916 41.2668 128.338 41.2668C130.282 41.2668 131.684 40.3652 132.546 38.5621L134.289 39.7341C133.788 40.8561 133.036 41.7476 132.035 42.4088C131.053 43.0699 129.821 43.4005 128.338 43.4005Z"/>
<path d="M137.081 20.8013H139.485V34.8957H139.606L141.98 32.2511L146.367 27.5329H149.282L143.543 33.6636L149.853 43.0399H146.938L141.799 35.1361L139.485 37.5103V43.0399H137.081V20.8013Z"/>
<path d="M156.693 43.4005C155.25 43.4005 154.038 43.13 153.056 42.5891C152.095 42.0281 151.263 41.2868 150.562 40.3652L152.275 38.9828C152.876 39.7441 153.547 40.3352 154.288 40.7559C155.03 41.1566 155.891 41.3569 156.873 41.3569C157.895 41.3569 158.686 41.1366 159.247 40.6958C159.828 40.255 160.119 39.6339 160.119 38.8326C160.119 38.2315 159.918 37.7206 159.518 37.2999C159.137 36.8591 158.436 36.5586 157.414 36.3983L156.182 36.218C155.461 36.1178 154.799 35.9676 154.198 35.7672C153.597 35.5469 153.066 35.2664 152.606 34.9258C152.165 34.5652 151.814 34.1244 151.554 33.6035C151.313 33.0826 151.193 32.4615 151.193 31.7402C151.193 30.9789 151.333 30.3178 151.614 29.7568C151.894 29.1758 152.275 28.695 152.756 28.3143C153.257 27.9336 153.848 27.6532 154.529 27.4728C155.21 27.2725 155.941 27.1723 156.723 27.1723C157.985 27.1723 159.037 27.3927 159.878 27.8335C160.74 28.2742 161.491 28.8853 162.132 29.6667L160.539 31.1092C160.199 30.6283 159.698 30.1976 159.037 29.8169C158.376 29.4162 157.544 29.2159 156.542 29.2159C155.541 29.2159 154.779 29.4363 154.258 29.877C153.758 30.2977 153.507 30.8788 153.507 31.62C153.507 32.3814 153.758 32.9323 154.258 33.2729C154.779 33.6135 155.521 33.8639 156.482 34.0242L157.684 34.2045C159.407 34.465 160.629 34.9658 161.351 35.7071C162.072 36.4284 162.433 37.38 162.433 38.5621C162.433 40.0647 161.922 41.2467 160.9 42.1082C159.878 42.9697 158.476 43.4005 156.693 43.4005Z"/>
<path d="M175.106 27.5329H177.481L170.538 46.6461C170.358 47.1069 170.178 47.4876 169.998 47.7881C169.817 48.1087 169.597 48.3591 169.336 48.5394C169.076 48.7197 168.745 48.8499 168.345 48.9301C167.964 49.0102 167.493 49.0503 166.932 49.0503H165.7V46.9466H168.134L169.306 43.6409L163.506 27.5329H165.91L169.637 38.0813L170.358 40.6056H170.508L171.35 38.0813L175.106 27.5329Z"/>
<path d="M179.946 43.0399V27.5329H182.35V30.0573H182.47C182.851 29.1758 183.381 28.4746 184.063 27.9537C184.764 27.4328 185.695 27.1723 186.857 27.1723C188.46 27.1723 189.722 27.6932 190.644 28.735C191.586 29.7568 192.057 31.2093 192.057 33.0926V43.0399H189.652V33.5133C189.652 30.7285 188.48 29.3361 186.136 29.3361C185.655 29.3361 185.185 29.3962 184.724 29.5164C184.283 29.6366 183.882 29.8169 183.522 30.0573C183.161 30.2977 182.871 30.6083 182.65 30.9889C182.45 31.3496 182.35 31.7803 182.35 32.2812V43.0399H179.946Z"/>
<path d="M202.195 43.4005C201.113 43.4005 200.141 43.2102 199.28 42.8295C198.418 42.4488 197.687 41.9079 197.086 41.2067C196.505 40.5055 196.054 39.654 195.734 38.6522C195.433 37.6505 195.283 36.5286 195.283 35.2864C195.283 34.0442 195.433 32.9223 195.734 31.9206C196.054 30.9188 196.505 30.0673 197.086 29.3661C197.687 28.6649 198.418 28.124 199.28 27.7433C200.141 27.3627 201.113 27.1723 202.195 27.1723C203.738 27.1723 204.97 27.5129 205.891 28.1941C206.833 28.8552 207.534 29.7268 207.995 30.8086L205.981 31.8304C205.701 31.029 205.24 30.4079 204.599 29.9672C203.958 29.5264 203.157 29.306 202.195 29.306C201.474 29.306 200.843 29.4262 200.302 29.6667C199.761 29.887 199.31 30.2076 198.949 30.6283C198.589 31.029 198.318 31.5199 198.138 32.1009C197.958 32.6618 197.867 33.2829 197.867 33.9641V36.6087C197.867 37.9711 198.228 39.093 198.949 39.9745C199.691 40.836 200.772 41.2668 202.195 41.2668C204.138 41.2668 205.541 40.3652 206.402 38.5621L208.145 39.7341C207.644 40.8561 206.893 41.7476 205.891 42.4088C204.91 43.0699 203.677 43.4005 202.195 43.4005Z"/>
</mask>
<path d="M86.451 43.4005C84.748 43.4005 83.2955 43.0799 82.0934 42.4388C80.8913 41.7777 79.8695 40.8761 79.0281 39.7341L80.8913 38.1714C81.6326 39.1531 82.454 39.9044 83.3556 40.4253C84.2571 40.9262 85.319 41.1766 86.5411 41.1766C88.0437 41.1766 89.1857 40.816 89.9671 40.0947C90.7684 39.3735 91.1691 38.4118 91.1691 37.2097C91.1691 36.208 90.8686 35.4367 90.2676 34.8957C89.6665 34.3548 88.6748 33.924 87.2924 33.6035L85.5794 33.2128C83.6561 32.772 82.1836 32.1109 81.1618 31.2294C80.16 30.3278 79.6592 29.0656 79.6592 27.4428C79.6592 26.5212 79.8295 25.6998 80.1701 24.9785C80.5106 24.2573 80.9815 23.6562 81.5825 23.1754C82.2036 22.6946 82.9349 22.3339 83.7763 22.0935C84.6378 21.8331 85.5794 21.7028 86.6012 21.7028C88.184 21.7028 89.5363 21.9933 90.6583 22.5743C91.8002 23.1554 92.7619 24.0068 93.5433 25.1288L91.65 26.5112C91.069 25.7098 90.3678 25.0787 89.5463 24.6179C88.7249 24.1571 87.7031 23.9267 86.481 23.9267C85.1387 23.9267 84.0768 24.2172 83.2955 24.7982C82.5342 25.3592 82.1535 26.2107 82.1535 27.3526C82.1535 28.3544 82.4741 29.1157 83.1152 29.6366C83.7763 30.1375 84.768 30.5382 86.0903 30.8387L87.8033 31.2294C89.8669 31.6902 91.3595 32.3914 92.2811 33.333C93.2027 34.2746 93.6635 35.5268 93.6635 37.0895C93.6635 38.0512 93.4932 38.9227 93.1526 39.7041C92.832 40.4854 92.3612 41.1466 91.7401 41.6875C91.1191 42.2284 90.3577 42.6492 89.4562 42.9497C88.5746 43.2502 87.5729 43.4005 86.451 43.4005Z" fill="white"/>
<path d="M100.607 43.0399C99.7657 43.0399 99.1246 42.8095 98.6838 42.3487C98.2631 41.8678 98.0527 41.2467 98.0527 40.4854V29.6366H95.4983V27.5329H96.9408C97.4617 27.5329 97.8123 27.4328 97.9926 27.2324C98.193 27.012 98.2931 26.6414 98.2931 26.1205V23.2355H100.457V27.5329H103.853V29.6366H100.457V40.9362H103.612V43.0399H100.607Z" fill="white"/>
<path d="M118.386 43.0399C117.484 43.0399 116.833 42.7994 116.432 42.3186C116.052 41.8378 115.811 41.2367 115.711 40.5155H115.561C115.22 41.4771 114.659 42.1984 113.878 42.6792C113.096 43.1601 112.165 43.4005 111.083 43.4005C109.44 43.4005 108.158 42.9798 107.236 42.1383C106.335 41.2968 105.884 40.1549 105.884 38.7123C105.884 37.2498 106.415 36.1279 107.477 35.3465C108.559 34.5652 110.231 34.1745 112.495 34.1745H115.561V32.6418C115.561 31.5399 115.26 30.6984 114.659 30.1174C114.058 29.5364 113.136 29.2459 111.894 29.2459C110.953 29.2459 110.161 29.4563 109.52 29.877C108.899 30.2977 108.378 30.8587 107.957 31.5599L106.515 30.2076C106.936 29.3661 107.607 28.6549 108.528 28.0739C109.45 27.4728 110.612 27.1723 112.015 27.1723C113.898 27.1723 115.36 27.6331 116.402 28.5547C117.444 29.4763 117.965 30.7585 117.965 32.4014V40.9362H119.738V43.0399H118.386ZM111.474 41.3569C112.075 41.3569 112.626 41.2868 113.126 41.1466C113.627 41.0063 114.058 40.806 114.419 40.5455C114.779 40.2851 115.06 39.9846 115.26 39.644C115.461 39.3034 115.561 38.9327 115.561 38.532V35.9776H112.375C110.993 35.9776 109.981 36.1779 109.34 36.5786C108.719 36.9793 108.408 37.5603 108.408 38.3217V38.9528C108.408 39.7141 108.679 40.3051 109.22 40.7258C109.781 41.1466 110.532 41.3569 111.474 41.3569Z" fill="white"/>
<path d="M128.338 43.4005C127.256 43.4005 126.285 43.2102 125.423 42.8295C124.562 42.4488 123.83 41.9079 123.229 41.2067C122.648 40.5055 122.198 39.654 121.877 38.6522C121.577 37.6505 121.426 36.5286 121.426 35.2864C121.426 34.0442 121.577 32.9223 121.877 31.9206C122.198 30.9188 122.648 30.0673 123.229 29.3661C123.83 28.6649 124.562 28.124 125.423 27.7433C126.285 27.3627 127.256 27.1723 128.338 27.1723C129.881 27.1723 131.113 27.5129 132.035 28.1941C132.976 28.8552 133.678 29.7268 134.138 30.8086L132.125 31.8304C131.844 31.029 131.384 30.4079 130.742 29.9672C130.101 29.5264 129.3 29.306 128.338 29.306C127.617 29.306 126.986 29.4262 126.445 29.6667C125.904 29.887 125.453 30.2076 125.093 30.6283C124.732 31.029 124.462 31.5199 124.281 32.1009C124.101 32.6618 124.011 33.2829 124.011 33.9641V36.6087C124.011 37.9711 124.371 39.093 125.093 39.9745C125.834 40.836 126.916 41.2668 128.338 41.2668C130.282 41.2668 131.684 40.3652 132.546 38.5621L134.289 39.7341C133.788 40.8561 133.036 41.7476 132.035 42.4088C131.053 43.0699 129.821 43.4005 128.338 43.4005Z" fill="white"/>
<path d="M137.081 20.8013H139.485V34.8957H139.606L141.98 32.2511L146.367 27.5329H149.282L143.543 33.6636L149.853 43.0399H146.938L141.799 35.1361L139.485 37.5103V43.0399H137.081V20.8013Z" fill="white"/>
<path d="M156.693 43.4005C155.25 43.4005 154.038 43.13 153.056 42.5891C152.095 42.0281 151.263 41.2868 150.562 40.3652L152.275 38.9828C152.876 39.7441 153.547 40.3352 154.288 40.7559C155.03 41.1566 155.891 41.3569 156.873 41.3569C157.895 41.3569 158.686 41.1366 159.247 40.6958C159.828 40.255 160.119 39.6339 160.119 38.8326C160.119 38.2315 159.918 37.7206 159.518 37.2999C159.137 36.8591 158.436 36.5586 157.414 36.3983L156.182 36.218C155.461 36.1178 154.799 35.9676 154.198 35.7672C153.597 35.5469 153.066 35.2664 152.606 34.9258C152.165 34.5652 151.814 34.1244 151.554 33.6035C151.313 33.0826 151.193 32.4615 151.193 31.7402C151.193 30.9789 151.333 30.3178 151.614 29.7568C151.894 29.1758 152.275 28.695 152.756 28.3143C153.257 27.9336 153.848 27.6532 154.529 27.4728C155.21 27.2725 155.941 27.1723 156.723 27.1723C157.985 27.1723 159.037 27.3927 159.878 27.8335C160.74 28.2742 161.491 28.8853 162.132 29.6667L160.539 31.1092C160.199 30.6283 159.698 30.1976 159.037 29.8169C158.376 29.4162 157.544 29.2159 156.542 29.2159C155.541 29.2159 154.779 29.4363 154.258 29.877C153.758 30.2977 153.507 30.8788 153.507 31.62C153.507 32.3814 153.758 32.9323 154.258 33.2729C154.779 33.6135 155.521 33.8639 156.482 34.0242L157.684 34.2045C159.407 34.465 160.629 34.9658 161.351 35.7071C162.072 36.4284 162.433 37.38 162.433 38.5621C162.433 40.0647 161.922 41.2467 160.9 42.1082C159.878 42.9697 158.476 43.4005 156.693 43.4005Z" fill="white"/>
<path d="M175.106 27.5329H177.481L170.538 46.6461C170.358 47.1069 170.178 47.4876 169.998 47.7881C169.817 48.1087 169.597 48.3591 169.336 48.5394C169.076 48.7197 168.745 48.8499 168.345 48.9301C167.964 49.0102 167.493 49.0503 166.932 49.0503H165.7V46.9466H168.134L169.306 43.6409L163.506 27.5329H165.91L169.637 38.0813L170.358 40.6056H170.508L171.35 38.0813L175.106 27.5329Z" fill="white"/>
<path d="M179.946 43.0399V27.5329H182.35V30.0573H182.47C182.851 29.1758 183.381 28.4746 184.063 27.9537C184.764 27.4328 185.695 27.1723 186.857 27.1723C188.46 27.1723 189.722 27.6932 190.644 28.735C191.586 29.7568 192.057 31.2093 192.057 33.0926V43.0399H189.652V33.5133C189.652 30.7285 188.48 29.3361 186.136 29.3361C185.655 29.3361 185.185 29.3962 184.724 29.5164C184.283 29.6366 183.882 29.8169 183.522 30.0573C183.161 30.2977 182.871 30.6083 182.65 30.9889C182.45 31.3496 182.35 31.7803 182.35 32.2812V43.0399H179.946Z" fill="white"/>
<path d="M202.195 43.4005C201.113 43.4005 200.141 43.2102 199.28 42.8295C198.418 42.4488 197.687 41.9079 197.086 41.2067C196.505 40.5055 196.054 39.654 195.734 38.6522C195.433 37.6505 195.283 36.5286 195.283 35.2864C195.283 34.0442 195.433 32.9223 195.734 31.9206C196.054 30.9188 196.505 30.0673 197.086 29.3661C197.687 28.6649 198.418 28.124 199.28 27.7433C200.141 27.3627 201.113 27.1723 202.195 27.1723C203.738 27.1723 204.97 27.5129 205.891 28.1941C206.833 28.8552 207.534 29.7268 207.995 30.8086L205.981 31.8304C205.701 31.029 205.24 30.4079 204.599 29.9672C203.958 29.5264 203.157 29.306 202.195 29.306C201.474 29.306 200.843 29.4262 200.302 29.6667C199.761 29.887 199.31 30.2076 198.949 30.6283C198.589 31.029 198.318 31.5199 198.138 32.1009C197.958 32.6618 197.867 33.2829 197.867 33.9641V36.6087C197.867 37.9711 198.228 39.093 198.949 39.9745C199.691 40.836 200.772 41.2668 202.195 41.2668C204.138 41.2668 205.541 40.3652 206.402 38.5621L208.145 39.7341C207.644 40.8561 206.893 41.7476 205.891 42.4088C204.91 43.0699 203.677 43.4005 202.195 43.4005Z" fill="white"/>
<path d="M86.451 43.4005C84.748 43.4005 83.2955 43.0799 82.0934 42.4388C80.8913 41.7777 79.8695 40.8761 79.0281 39.7341L80.8913 38.1714C81.6326 39.1531 82.454 39.9044 83.3556 40.4253C84.2571 40.9262 85.319 41.1766 86.5411 41.1766C88.0437 41.1766 89.1857 40.816 89.9671 40.0947C90.7684 39.3735 91.1691 38.4118 91.1691 37.2097C91.1691 36.208 90.8686 35.4367 90.2676 34.8957C89.6665 34.3548 88.6748 33.924 87.2924 33.6035L85.5794 33.2128C83.6561 32.772 82.1836 32.1109 81.1618 31.2294C80.16 30.3278 79.6592 29.0656 79.6592 27.4428C79.6592 26.5212 79.8295 25.6998 80.1701 24.9785C80.5106 24.2573 80.9815 23.6562 81.5825 23.1754C82.2036 22.6946 82.9349 22.3339 83.7763 22.0935C84.6378 21.8331 85.5794 21.7028 86.6012 21.7028C88.184 21.7028 89.5363 21.9933 90.6583 22.5743C91.8002 23.1554 92.7619 24.0068 93.5433 25.1288L91.65 26.5112C91.069 25.7098 90.3678 25.0787 89.5463 24.6179C88.7249 24.1571 87.7031 23.9267 86.481 23.9267C85.1387 23.9267 84.0768 24.2172 83.2955 24.7982C82.5342 25.3592 82.1535 26.2107 82.1535 27.3526C82.1535 28.3544 82.4741 29.1157 83.1152 29.6366C83.7763 30.1375 84.768 30.5382 86.0903 30.8387L87.8033 31.2294C89.8669 31.6902 91.3595 32.3914 92.2811 33.333C93.2027 34.2746 93.6635 35.5268 93.6635 37.0895C93.6635 38.0512 93.4932 38.9227 93.1526 39.7041C92.832 40.4854 92.3612 41.1466 91.7401 41.6875C91.1191 42.2284 90.3577 42.6492 89.4562 42.9497C88.5746 43.2502 87.5729 43.4005 86.451 43.4005Z" stroke="white" stroke-width="0.320026" mask="url(#path-1-outside-1_2054_46)"/>
<path d="M100.607 43.0399C99.7657 43.0399 99.1246 42.8095 98.6838 42.3487C98.2631 41.8678 98.0527 41.2467 98.0527 40.4854V29.6366H95.4983V27.5329H96.9408C97.4617 27.5329 97.8123 27.4328 97.9926 27.2324C98.193 27.012 98.2931 26.6414 98.2931 26.1205V23.2355H100.457V27.5329H103.853V29.6366H100.457V40.9362H103.612V43.0399H100.607Z" stroke="white" stroke-width="0.320026" mask="url(#path-1-outside-1_2054_46)"/>
<path d="M118.386 43.0399C117.484 43.0399 116.833 42.7994 116.432 42.3186C116.052 41.8378 115.811 41.2367 115.711 40.5155H115.561C115.22 41.4771 114.659 42.1984 113.878 42.6792C113.096 43.1601 112.165 43.4005 111.083 43.4005C109.44 43.4005 108.158 42.9798 107.236 42.1383C106.335 41.2968 105.884 40.1549 105.884 38.7123C105.884 37.2498 106.415 36.1279 107.477 35.3465C108.559 34.5652 110.231 34.1745 112.495 34.1745H115.561V32.6418C115.561 31.5399 115.26 30.6984 114.659 30.1174C114.058 29.5364 113.136 29.2459 111.894 29.2459C110.953 29.2459 110.161 29.4563 109.52 29.877C108.899 30.2977 108.378 30.8587 107.957 31.5599L106.515 30.2076C106.936 29.3661 107.607 28.6549 108.528 28.0739C109.45 27.4728 110.612 27.1723 112.015 27.1723C113.898 27.1723 115.36 27.6331 116.402 28.5547C117.444 29.4763 117.965 30.7585 117.965 32.4014V40.9362H119.738V43.0399H118.386ZM111.474 41.3569C112.075 41.3569 112.626 41.2868 113.126 41.1466C113.627 41.0063 114.058 40.806 114.419 40.5455C114.779 40.2851 115.06 39.9846 115.26 39.644C115.461 39.3034 115.561 38.9327 115.561 38.532V35.9776H112.375C110.993 35.9776 109.981 36.1779 109.34 36.5786C108.719 36.9793 108.408 37.5603 108.408 38.3217V38.9528C108.408 39.7141 108.679 40.3051 109.22 40.7258C109.781 41.1466 110.532 41.3569 111.474 41.3569Z" stroke="white" stroke-width="0.320026" mask="url(#path-1-outside-1_2054_46)"/>
<path d="M128.338 43.4005C127.256 43.4005 126.285 43.2102 125.423 42.8295C124.562 42.4488 123.83 41.9079 123.229 41.2067C122.648 40.5055 122.198 39.654 121.877 38.6522C121.577 37.6505 121.426 36.5286 121.426 35.2864C121.426 34.0442 121.577 32.9223 121.877 31.9206C122.198 30.9188 122.648 30.0673 123.229 29.3661C123.83 28.6649 124.562 28.124 125.423 27.7433C126.285 27.3627 127.256 27.1723 128.338 27.1723C129.881 27.1723 131.113 27.5129 132.035 28.1941C132.976 28.8552 133.678 29.7268 134.138 30.8086L132.125 31.8304C131.844 31.029 131.384 30.4079 130.742 29.9672C130.101 29.5264 129.3 29.306 128.338 29.306C127.617 29.306 126.986 29.4262 126.445 29.6667C125.904 29.887 125.453 30.2076 125.093 30.6283C124.732 31.029 124.462 31.5199 124.281 32.1009C124.101 32.6618 124.011 33.2829 124.011 33.9641V36.6087C124.011 37.9711 124.371 39.093 125.093 39.9745C125.834 40.836 126.916 41.2668 128.338 41.2668C130.282 41.2668 131.684 40.3652 132.546 38.5621L134.289 39.7341C133.788 40.8561 133.036 41.7476 132.035 42.4088C131.053 43.0699 129.821 43.4005 128.338 43.4005Z" stroke="white" stroke-width="0.320026" mask="url(#path-1-outside-1_2054_46)"/>
<path d="M137.081 20.8013H139.485V34.8957H139.606L141.98 32.2511L146.367 27.5329H149.282L143.543 33.6636L149.853 43.0399H146.938L141.799 35.1361L139.485 37.5103V43.0399H137.081V20.8013Z" stroke="white" stroke-width="0.320026" mask="url(#path-1-outside-1_2054_46)"/>
<path d="M156.693 43.4005C155.25 43.4005 154.038 43.13 153.056 42.5891C152.095 42.0281 151.263 41.2868 150.562 40.3652L152.275 38.9828C152.876 39.7441 153.547 40.3352 154.288 40.7559C155.03 41.1566 155.891 41.3569 156.873 41.3569C157.895 41.3569 158.686 41.1366 159.247 40.6958C159.828 40.255 160.119 39.6339 160.119 38.8326C160.119 38.2315 159.918 37.7206 159.518 37.2999C159.137 36.8591 158.436 36.5586 157.414 36.3983L156.182 36.218C155.461 36.1178 154.799 35.9676 154.198 35.7672C153.597 35.5469 153.066 35.2664 152.606 34.9258C152.165 34.5652 151.814 34.1244 151.554 33.6035C151.313 33.0826 151.193 32.4615 151.193 31.7402C151.193 30.9789 151.333 30.3178 151.614 29.7568C151.894 29.1758 152.275 28.695 152.756 28.3143C153.257 27.9336 153.848 27.6532 154.529 27.4728C155.21 27.2725 155.941 27.1723 156.723 27.1723C157.985 27.1723 159.037 27.3927 159.878 27.8335C160.74 28.2742 161.491 28.8853 162.132 29.6667L160.539 31.1092C160.199 30.6283 159.698 30.1976 159.037 29.8169C158.376 29.4162 157.544 29.2159 156.542 29.2159C155.541 29.2159 154.779 29.4363 154.258 29.877C153.758 30.2977 153.507 30.8788 153.507 31.62C153.507 32.3814 153.758 32.9323 154.258 33.2729C154.779 33.6135 155.521 33.8639 156.482 34.0242L157.684 34.2045C159.407 34.465 160.629 34.9658 161.351 35.7071C162.072 36.4284 162.433 37.38 162.433 38.5621C162.433 40.0647 161.922 41.2467 160.9 42.1082C159.878 42.9697 158.476 43.4005 156.693 43.4005Z" stroke="white" stroke-width="0.320026" mask="url(#path-1-outside-1_2054_46)"/>
<path d="M175.106 27.5329H177.481L170.538 46.6461C170.358 47.1069 170.178 47.4876 169.998 47.7881C169.817 48.1087 169.597 48.3591 169.336 48.5394C169.076 48.7197 168.745 48.8499 168.345 48.9301C167.964 49.0102 167.493 49.0503 166.932 49.0503H165.7V46.9466H168.134L169.306 43.6409L163.506 27.5329H165.91L169.637 38.0813L170.358 40.6056H170.508L171.35 38.0813L175.106 27.5329Z" stroke="white" stroke-width="0.320026" mask="url(#path-1-outside-1_2054_46)"/>
<path d="M179.946 43.0399V27.5329H182.35V30.0573H182.47C182.851 29.1758 183.381 28.4746 184.063 27.9537C184.764 27.4328 185.695 27.1723 186.857 27.1723C188.46 27.1723 189.722 27.6932 190.644 28.735C191.586 29.7568 192.057 31.2093 192.057 33.0926V43.0399H189.652V33.5133C189.652 30.7285 188.48 29.3361 186.136 29.3361C185.655 29.3361 185.185 29.3962 184.724 29.5164C184.283 29.6366 183.882 29.8169 183.522 30.0573C183.161 30.2977 182.871 30.6083 182.65 30.9889C182.45 31.3496 182.35 31.7803 182.35 32.2812V43.0399H179.946Z" stroke="white" stroke-width="0.320026" mask="url(#path-1-outside-1_2054_46)"/>
<path d="M202.195 43.4005C201.113 43.4005 200.141 43.2102 199.28 42.8295C198.418 42.4488 197.687 41.9079 197.086 41.2067C196.505 40.5055 196.054 39.654 195.734 38.6522C195.433 37.6505 195.283 36.5286 195.283 35.2864C195.283 34.0442 195.433 32.9223 195.734 31.9206C196.054 30.9188 196.505 30.0673 197.086 29.3661C197.687 28.6649 198.418 28.124 199.28 27.7433C200.141 27.3627 201.113 27.1723 202.195 27.1723C203.738 27.1723 204.97 27.5129 205.891 28.1941C206.833 28.8552 207.534 29.7268 207.995 30.8086L205.981 31.8304C205.701 31.029 205.24 30.4079 204.599 29.9672C203.958 29.5264 203.157 29.306 202.195 29.306C201.474 29.306 200.843 29.4262 200.302 29.6667C199.761 29.887 199.31 30.2076 198.949 30.6283C198.589 31.029 198.318 31.5199 198.138 32.1009C197.958 32.6618 197.867 33.2829 197.867 33.9641V36.6087C197.867 37.9711 198.228 39.093 198.949 39.9745C199.691 40.836 200.772 41.2668 202.195 41.2668C204.138 41.2668 205.541 40.3652 206.402 38.5621L208.145 39.7341C207.644 40.8561 206.893 41.7476 205.891 42.4088C204.91 43.0699 203.677 43.4005 202.195 43.4005Z" stroke="white" stroke-width="0.320026" mask="url(#path-1-outside-1_2054_46)"/>
<path fill-rule="evenodd" clip-rule="evenodd" d="M18.6073 41.5167L9.99551 46.4431L29.9287 57.8464L49.8575 46.4475L0.408968 18.1563C0.0199621 17.9348 -0.114178 17.443 0.109389 17.062C0.185402 16.9336 0.288242 16.8317 0.408968 16.7652L29.5263 0.107655C29.7901 -0.0429718 30.0986 -0.0296812 30.3401 0.112085L59.4485 16.7652C59.8375 16.9867 59.9716 17.4785 59.7481 17.8595C59.6721 17.9879 59.5692 18.0898 59.4485 18.1563L43.9508 27.0211C43.5618 27.2426 43.07 27.1097 42.8464 26.7287L40.9506 23.4814C40.727 23.096 40.8567 22.6042 41.2457 22.3827L49.8664 17.4519L29.9287 6.05298L9.99998 17.4563L59.453 45.7476C59.842 45.9691 59.9716 46.4608 59.7481 46.8463C59.6631 46.988 59.5469 47.0943 59.4082 47.1652L30.3311 63.8006C30.0673 63.9513 29.7588 63.938 29.5174 63.7962L0.408968 47.1386C0.0199621 46.9171 -0.114178 46.4254 0.109389 46.0444C0.185402 45.9159 0.288242 45.8184 0.404497 45.752L15.9111 36.8783C16.3001 36.6568 16.7964 36.7853 17.02 37.1707L17.0468 37.2194L18.9024 40.4225C19.126 40.8079 18.9918 41.2952 18.6028 41.5167H18.6073Z" fill="white"/>
<path fill-rule="evenodd" clip-rule="evenodd" d="M18.683 36.9184L29.9329 43.3555L41.1559 36.9361C41.1827 36.914 41.214 36.8962 41.2453 36.8785L49.8571 31.9566L41.2453 27.0302C41.2185 27.0169 41.1917 26.9992 41.1693 26.9815L29.9373 20.5577L22.6759 24.7132L17.2745 21.6253L29.5304 14.6123C29.8077 14.4528 30.1385 14.475 30.3889 14.6389L43.8611 22.3475C43.9147 22.3696 43.9639 22.3962 44.0086 22.4272L59.466 31.2699C59.855 31.4914 59.9847 31.9832 59.7611 32.3686C59.6851 32.4971 59.5823 32.5945 59.4616 32.6654L43.9639 41.5302C43.9371 41.548 43.9058 41.5612 43.879 41.5745L30.3442 49.3185C30.0804 49.4692 29.7719 49.4559 29.5304 49.3141L28.5959 48.7825L16.0181 41.5878C15.9644 41.5657 15.9152 41.5391 15.8705 41.5081L0.404168 32.6477C0.0151623 32.4262 -0.114506 31.9344 0.10906 31.549C0.185073 31.4205 0.287914 31.3231 0.40864 31.2522L11.8553 24.7043L17.2656 27.801L10.0041 31.9521L18.6159 36.8785L18.6785 36.9184H18.683Z" fill="white"/>
</svg>
