<svg width="210" height="64" viewBox="0 0 210 64" fill="none" xmlns="http://www.w3.org/2000/svg">
<mask id="path-1-outside-1_2054_12" maskUnits="userSpaceOnUse" x="78.7979" y="19.847" width="131" height="30" fill="black">
<rect fill="white" x="78.7979" y="19.847" width="131" height="30"/>
<path d="M87.2207 43.4463C85.5178 43.4463 84.0653 43.1257 82.8632 42.4846C81.6611 41.8234 80.6393 40.9219 79.7979 39.7799L81.6611 38.2172C82.4024 39.1989 83.2238 39.9502 84.1254 40.4711C85.0269 40.972 86.0888 41.2224 87.3109 41.2224C88.8135 41.2224 89.9555 40.8618 90.7368 40.1405C91.5382 39.4193 91.9389 38.4576 91.9389 37.2555C91.9389 36.2538 91.6384 35.4824 91.0374 34.9415C90.4363 34.4006 89.4446 33.9698 88.0622 33.6493L86.3492 33.2586C84.4259 32.8178 82.9533 32.1567 81.9316 31.2751C80.9298 30.3736 80.4289 29.1114 80.4289 27.4886C80.4289 26.567 80.5992 25.7455 80.9398 25.0243C81.2804 24.303 81.7512 23.702 82.3523 23.2212C82.9734 22.7403 83.7046 22.3797 84.5461 22.1393C85.4076 21.8788 86.3492 21.7486 87.371 21.7486C88.9537 21.7486 90.3061 22.0391 91.428 22.6201C92.57 23.2011 93.5317 24.0526 94.313 25.1746L92.4198 26.557C91.8387 25.7556 91.1375 25.1245 90.3161 24.6637C89.4947 24.2029 88.4729 23.9725 87.2508 23.9725C85.9085 23.9725 84.8466 24.263 84.0653 24.844C83.3039 25.405 82.9233 26.2564 82.9233 27.3984C82.9233 28.4002 83.2438 29.1615 83.8849 29.6824C84.5461 30.1832 85.5378 30.5839 86.8601 30.8845L88.5731 31.2751C90.6367 31.7359 92.1292 32.4372 93.0508 33.3788C93.9724 34.3204 94.4332 35.5726 94.4332 37.1353C94.4332 38.097 94.2629 38.9685 93.9224 39.7498C93.6018 40.5312 93.131 41.1923 92.5099 41.7333C91.8888 42.2742 91.1275 42.695 90.2259 42.9955C89.3444 43.296 88.3427 43.4463 87.2207 43.4463Z"/>
<path d="M101.377 43.0856C100.535 43.0856 99.8944 42.8552 99.4536 42.3944C99.0329 41.9136 98.8225 41.2925 98.8225 40.5312V29.6824H96.2681V27.5787H97.7106C98.2315 27.5787 98.5821 27.4786 98.7624 27.2782C98.9627 27.0578 99.0629 26.6872 99.0629 26.1663V23.2813H101.227V27.5787H104.623V29.6824H101.227V40.982H104.382V43.0856H101.377Z"/>
<path d="M119.155 43.0856C118.254 43.0856 117.603 42.8452 117.202 42.3644C116.821 41.8835 116.581 41.2825 116.481 40.5613H116.33C115.99 41.5229 115.429 42.2442 114.648 42.725C113.866 43.2058 112.935 43.4463 111.853 43.4463C110.21 43.4463 108.928 43.0255 108.006 42.1841C107.104 41.3426 106.654 40.2006 106.654 38.7581C106.654 37.2956 107.185 36.1736 108.246 35.3923C109.328 34.6109 111.001 34.2202 113.265 34.2202H116.33V32.6876C116.33 31.5857 116.03 30.7442 115.429 30.1632C114.828 29.5822 113.906 29.2917 112.664 29.2917C111.722 29.2917 110.931 29.5021 110.29 29.9228C109.669 30.3435 109.148 30.9045 108.727 31.6057L107.285 30.2534C107.705 29.4119 108.377 28.7007 109.298 28.1197C110.22 27.5186 111.382 27.2181 112.784 27.2181C114.668 27.2181 116.13 27.6789 117.172 28.6005C118.214 29.5221 118.735 30.8043 118.735 32.4472V40.982H120.508V43.0856H119.155ZM112.243 41.4027C112.844 41.4027 113.395 41.3326 113.896 41.1923C114.397 41.0521 114.828 40.8518 115.188 40.5913C115.549 40.3309 115.83 40.0303 116.03 39.6897C116.23 39.3491 116.33 38.9785 116.33 38.5778V36.0234H113.145C111.763 36.0234 110.751 36.2237 110.11 36.6244C109.489 37.0251 109.178 37.6061 109.178 38.3674V38.9985C109.178 39.7599 109.449 40.3509 109.989 40.7716C110.55 41.1923 111.302 41.4027 112.243 41.4027Z"/>
<path d="M129.108 43.4463C128.026 43.4463 127.054 43.2559 126.193 42.8753C125.331 42.4946 124.6 41.9537 123.999 41.2525C123.418 40.5512 122.967 39.6998 122.647 38.698C122.346 37.6963 122.196 36.5743 122.196 35.3322C122.196 34.09 122.346 32.9681 122.647 31.9663C122.967 30.9646 123.418 30.1131 123.999 29.4119C124.6 28.7107 125.331 28.1698 126.193 27.7891C127.054 27.4084 128.026 27.2181 129.108 27.2181C130.651 27.2181 131.883 27.5587 132.804 28.2399C133.746 28.901 134.447 29.7725 134.908 30.8544L132.895 31.8762C132.614 31.0748 132.153 30.4537 131.512 30.0129C130.871 29.5722 130.07 29.3518 129.108 29.3518C128.387 29.3518 127.756 29.472 127.215 29.7124C126.674 29.9328 126.223 30.2534 125.862 30.6741C125.502 31.0748 125.231 31.5656 125.051 32.1467C124.871 32.7076 124.781 33.3287 124.781 34.0099V36.6545C124.781 38.0168 125.141 39.1388 125.862 40.0203C126.604 40.8818 127.686 41.3126 129.108 41.3126C131.051 41.3126 132.454 40.411 133.315 38.6079L135.058 39.7799C134.557 40.9018 133.806 41.7934 132.804 42.4545C131.823 43.1157 130.591 43.4463 129.108 43.4463Z"/>
<path d="M137.851 20.847H140.255V34.9415H140.375L142.75 32.2969L147.137 27.5787H150.052L144.312 33.7094L150.623 43.0856H147.708L142.569 35.1819L140.255 37.556V43.0856H137.851V20.847Z"/>
<path d="M157.462 43.4463C156.02 43.4463 154.808 43.1758 153.826 42.6348C152.864 42.0739 152.033 41.3326 151.332 40.411L153.045 39.0286C153.646 39.7899 154.317 40.3809 155.058 40.8017C155.8 41.2024 156.661 41.4027 157.643 41.4027C158.665 41.4027 159.456 41.1823 160.017 40.7416C160.598 40.3008 160.888 39.6797 160.888 38.8783C160.888 38.2773 160.688 37.7664 160.287 37.3457C159.907 36.9049 159.205 36.6044 158.184 36.4441L156.952 36.2638C156.23 36.1636 155.569 36.0134 154.968 35.813C154.367 35.5926 153.836 35.3121 153.375 34.9716C152.935 34.6109 152.584 34.1702 152.324 33.6493C152.083 33.1284 151.963 32.5073 151.963 31.786C151.963 31.0247 152.103 30.3636 152.384 29.8026C152.664 29.2216 153.045 28.7407 153.526 28.3601C154.026 27.9794 154.618 27.6989 155.299 27.5186C155.98 27.3183 156.711 27.2181 157.492 27.2181C158.755 27.2181 159.807 27.4385 160.648 27.8792C161.509 28.32 162.261 28.9311 162.902 29.7124L161.309 31.1549C160.969 30.6741 160.468 30.2433 159.807 29.8627C159.145 29.462 158.314 29.2616 157.312 29.2616C156.31 29.2616 155.549 29.482 155.028 29.9228C154.527 30.3435 154.277 30.9245 154.277 31.6658C154.277 32.4271 154.527 32.9781 155.028 33.3187C155.549 33.6593 156.29 33.9097 157.252 34.07L158.454 34.2503C160.177 34.5108 161.399 35.0116 162.121 35.7529C162.842 36.4742 163.202 37.4258 163.202 38.6079C163.202 40.1105 162.692 41.2925 161.67 42.154C160.648 43.0155 159.246 43.4463 157.462 43.4463Z"/>
<path d="M175.876 27.5787H178.25L171.308 46.6919C171.128 47.1527 170.948 47.5333 170.767 47.8339C170.587 48.1544 170.367 48.4049 170.106 48.5852C169.846 48.7655 169.515 48.8957 169.114 48.9759C168.734 49.056 168.263 49.0961 167.702 49.0961H166.47V46.9924H168.904L170.076 43.6867L164.276 27.5787H166.68L170.407 38.127L171.128 40.6514H171.278L172.12 38.127L175.876 27.5787Z"/>
<path d="M180.715 43.0856V27.5787H183.119V30.1031H183.24C183.62 29.2216 184.151 28.5204 184.832 27.9995C185.534 27.4786 186.465 27.2181 187.627 27.2181C189.23 27.2181 190.492 27.739 191.414 28.7808C192.355 29.8026 192.826 31.2551 192.826 33.1384V43.0856H190.422V33.5591C190.422 30.7743 189.25 29.3819 186.906 29.3819C186.425 29.3819 185.954 29.442 185.494 29.5622C185.053 29.6824 184.652 29.8627 184.291 30.1031C183.931 30.3435 183.64 30.6541 183.42 31.0347C183.22 31.3953 183.119 31.8261 183.119 32.327V43.0856H180.715Z"/>
<path d="M202.965 43.4463C201.883 43.4463 200.911 43.2559 200.05 42.8753C199.188 42.4946 198.457 41.9537 197.856 41.2525C197.275 40.5512 196.824 39.6998 196.503 38.698C196.203 37.6963 196.053 36.5743 196.053 35.3322C196.053 34.09 196.203 32.9681 196.503 31.9663C196.824 30.9646 197.275 30.1131 197.856 29.4119C198.457 28.7107 199.188 28.1698 200.05 27.7891C200.911 27.4084 201.883 27.2181 202.965 27.2181C204.507 27.2181 205.739 27.5587 206.661 28.2399C207.603 28.901 208.304 29.7725 208.765 30.8544L206.751 31.8762C206.471 31.0748 206.01 30.4537 205.369 30.0129C204.728 29.5722 203.926 29.3518 202.965 29.3518C202.243 29.3518 201.612 29.472 201.071 29.7124C200.53 29.9328 200.08 30.2534 199.719 30.6741C199.358 31.0748 199.088 31.5656 198.908 32.1467C198.727 32.7076 198.637 33.3287 198.637 34.0099V36.6545C198.637 38.0168 198.998 39.1388 199.719 40.0203C200.46 40.8818 201.542 41.3126 202.965 41.3126C204.908 41.3126 206.31 40.411 207.172 38.6079L208.915 39.7799C208.414 40.9018 207.663 41.7934 206.661 42.4545C205.679 43.1157 204.447 43.4463 202.965 43.4463Z"/>
</mask>
<path d="M87.2207 43.4463C85.5178 43.4463 84.0653 43.1257 82.8632 42.4846C81.6611 41.8234 80.6393 40.9219 79.7979 39.7799L81.6611 38.2172C82.4024 39.1989 83.2238 39.9502 84.1254 40.4711C85.0269 40.972 86.0888 41.2224 87.3109 41.2224C88.8135 41.2224 89.9555 40.8618 90.7368 40.1405C91.5382 39.4193 91.9389 38.4576 91.9389 37.2555C91.9389 36.2538 91.6384 35.4824 91.0374 34.9415C90.4363 34.4006 89.4446 33.9698 88.0622 33.6493L86.3492 33.2586C84.4259 32.8178 82.9533 32.1567 81.9316 31.2751C80.9298 30.3736 80.4289 29.1114 80.4289 27.4886C80.4289 26.567 80.5992 25.7455 80.9398 25.0243C81.2804 24.303 81.7512 23.702 82.3523 23.2212C82.9734 22.7403 83.7046 22.3797 84.5461 22.1393C85.4076 21.8788 86.3492 21.7486 87.371 21.7486C88.9537 21.7486 90.3061 22.0391 91.428 22.6201C92.57 23.2011 93.5317 24.0526 94.313 25.1746L92.4198 26.557C91.8387 25.7556 91.1375 25.1245 90.3161 24.6637C89.4947 24.2029 88.4729 23.9725 87.2508 23.9725C85.9085 23.9725 84.8466 24.263 84.0653 24.844C83.3039 25.405 82.9233 26.2564 82.9233 27.3984C82.9233 28.4002 83.2438 29.1615 83.8849 29.6824C84.5461 30.1832 85.5378 30.5839 86.8601 30.8845L88.5731 31.2751C90.6367 31.7359 92.1292 32.4372 93.0508 33.3788C93.9724 34.3204 94.4332 35.5726 94.4332 37.1353C94.4332 38.097 94.2629 38.9685 93.9224 39.7498C93.6018 40.5312 93.131 41.1923 92.5099 41.7333C91.8888 42.2742 91.1275 42.695 90.2259 42.9955C89.3444 43.296 88.3427 43.4463 87.2207 43.4463Z" fill="#161616"/>
<path d="M101.377 43.0856C100.535 43.0856 99.8944 42.8552 99.4536 42.3944C99.0329 41.9136 98.8225 41.2925 98.8225 40.5312V29.6824H96.2681V27.5787H97.7106C98.2315 27.5787 98.5821 27.4786 98.7624 27.2782C98.9627 27.0578 99.0629 26.6872 99.0629 26.1663V23.2813H101.227V27.5787H104.623V29.6824H101.227V40.982H104.382V43.0856H101.377Z" fill="#161616"/>
<path d="M119.155 43.0856C118.254 43.0856 117.603 42.8452 117.202 42.3644C116.821 41.8835 116.581 41.2825 116.481 40.5613H116.33C115.99 41.5229 115.429 42.2442 114.648 42.725C113.866 43.2058 112.935 43.4463 111.853 43.4463C110.21 43.4463 108.928 43.0255 108.006 42.1841C107.104 41.3426 106.654 40.2006 106.654 38.7581C106.654 37.2956 107.185 36.1736 108.246 35.3923C109.328 34.6109 111.001 34.2202 113.265 34.2202H116.33V32.6876C116.33 31.5857 116.03 30.7442 115.429 30.1632C114.828 29.5822 113.906 29.2917 112.664 29.2917C111.722 29.2917 110.931 29.5021 110.29 29.9228C109.669 30.3435 109.148 30.9045 108.727 31.6057L107.285 30.2534C107.705 29.4119 108.377 28.7007 109.298 28.1197C110.22 27.5186 111.382 27.2181 112.784 27.2181C114.668 27.2181 116.13 27.6789 117.172 28.6005C118.214 29.5221 118.735 30.8043 118.735 32.4472V40.982H120.508V43.0856H119.155ZM112.243 41.4027C112.844 41.4027 113.395 41.3326 113.896 41.1923C114.397 41.0521 114.828 40.8518 115.188 40.5913C115.549 40.3309 115.83 40.0303 116.03 39.6897C116.23 39.3491 116.33 38.9785 116.33 38.5778V36.0234H113.145C111.763 36.0234 110.751 36.2237 110.11 36.6244C109.489 37.0251 109.178 37.6061 109.178 38.3674V38.9985C109.178 39.7599 109.449 40.3509 109.989 40.7716C110.55 41.1923 111.302 41.4027 112.243 41.4027Z" fill="#161616"/>
<path d="M129.108 43.4463C128.026 43.4463 127.054 43.2559 126.193 42.8753C125.331 42.4946 124.6 41.9537 123.999 41.2525C123.418 40.5512 122.967 39.6998 122.647 38.698C122.346 37.6963 122.196 36.5743 122.196 35.3322C122.196 34.09 122.346 32.9681 122.647 31.9663C122.967 30.9646 123.418 30.1131 123.999 29.4119C124.6 28.7107 125.331 28.1698 126.193 27.7891C127.054 27.4084 128.026 27.2181 129.108 27.2181C130.651 27.2181 131.883 27.5587 132.804 28.2399C133.746 28.901 134.447 29.7725 134.908 30.8544L132.895 31.8762C132.614 31.0748 132.153 30.4537 131.512 30.0129C130.871 29.5722 130.07 29.3518 129.108 29.3518C128.387 29.3518 127.756 29.472 127.215 29.7124C126.674 29.9328 126.223 30.2534 125.862 30.6741C125.502 31.0748 125.231 31.5656 125.051 32.1467C124.871 32.7076 124.781 33.3287 124.781 34.0099V36.6545C124.781 38.0168 125.141 39.1388 125.862 40.0203C126.604 40.8818 127.686 41.3126 129.108 41.3126C131.051 41.3126 132.454 40.411 133.315 38.6079L135.058 39.7799C134.557 40.9018 133.806 41.7934 132.804 42.4545C131.823 43.1157 130.591 43.4463 129.108 43.4463Z" fill="#161616"/>
<path d="M137.851 20.847H140.255V34.9415H140.375L142.75 32.2969L147.137 27.5787H150.052L144.312 33.7094L150.623 43.0856H147.708L142.569 35.1819L140.255 37.556V43.0856H137.851V20.847Z" fill="#161616"/>
<path d="M157.462 43.4463C156.02 43.4463 154.808 43.1758 153.826 42.6348C152.864 42.0739 152.033 41.3326 151.332 40.411L153.045 39.0286C153.646 39.7899 154.317 40.3809 155.058 40.8017C155.8 41.2024 156.661 41.4027 157.643 41.4027C158.665 41.4027 159.456 41.1823 160.017 40.7416C160.598 40.3008 160.888 39.6797 160.888 38.8783C160.888 38.2773 160.688 37.7664 160.287 37.3457C159.907 36.9049 159.205 36.6044 158.184 36.4441L156.952 36.2638C156.23 36.1636 155.569 36.0134 154.968 35.813C154.367 35.5926 153.836 35.3121 153.375 34.9716C152.935 34.6109 152.584 34.1702 152.324 33.6493C152.083 33.1284 151.963 32.5073 151.963 31.786C151.963 31.0247 152.103 30.3636 152.384 29.8026C152.664 29.2216 153.045 28.7407 153.526 28.3601C154.026 27.9794 154.618 27.6989 155.299 27.5186C155.98 27.3183 156.711 27.2181 157.492 27.2181C158.755 27.2181 159.807 27.4385 160.648 27.8792C161.509 28.32 162.261 28.9311 162.902 29.7124L161.309 31.1549C160.969 30.6741 160.468 30.2433 159.807 29.8627C159.145 29.462 158.314 29.2616 157.312 29.2616C156.31 29.2616 155.549 29.482 155.028 29.9228C154.527 30.3435 154.277 30.9245 154.277 31.6658C154.277 32.4271 154.527 32.9781 155.028 33.3187C155.549 33.6593 156.29 33.9097 157.252 34.07L158.454 34.2503C160.177 34.5108 161.399 35.0116 162.121 35.7529C162.842 36.4742 163.202 37.4258 163.202 38.6079C163.202 40.1105 162.692 41.2925 161.67 42.154C160.648 43.0155 159.246 43.4463 157.462 43.4463Z" fill="#161616"/>
<path d="M175.876 27.5787H178.25L171.308 46.6919C171.128 47.1527 170.948 47.5333 170.767 47.8339C170.587 48.1544 170.367 48.4049 170.106 48.5852C169.846 48.7655 169.515 48.8957 169.114 48.9759C168.734 49.056 168.263 49.0961 167.702 49.0961H166.47V46.9924H168.904L170.076 43.6867L164.276 27.5787H166.68L170.407 38.127L171.128 40.6514H171.278L172.12 38.127L175.876 27.5787Z" fill="#161616"/>
<path d="M180.715 43.0856V27.5787H183.119V30.1031H183.24C183.62 29.2216 184.151 28.5204 184.832 27.9995C185.534 27.4786 186.465 27.2181 187.627 27.2181C189.23 27.2181 190.492 27.739 191.414 28.7808C192.355 29.8026 192.826 31.2551 192.826 33.1384V43.0856H190.422V33.5591C190.422 30.7743 189.25 29.3819 186.906 29.3819C186.425 29.3819 185.954 29.442 185.494 29.5622C185.053 29.6824 184.652 29.8627 184.291 30.1031C183.931 30.3435 183.64 30.6541 183.42 31.0347C183.22 31.3953 183.119 31.8261 183.119 32.327V43.0856H180.715Z" fill="#161616"/>
<path d="M202.965 43.4463C201.883 43.4463 200.911 43.2559 200.05 42.8753C199.188 42.4946 198.457 41.9537 197.856 41.2525C197.275 40.5512 196.824 39.6998 196.503 38.698C196.203 37.6963 196.053 36.5743 196.053 35.3322C196.053 34.09 196.203 32.9681 196.503 31.9663C196.824 30.9646 197.275 30.1131 197.856 29.4119C198.457 28.7107 199.188 28.1698 200.05 27.7891C200.911 27.4084 201.883 27.2181 202.965 27.2181C204.507 27.2181 205.739 27.5587 206.661 28.2399C207.603 28.901 208.304 29.7725 208.765 30.8544L206.751 31.8762C206.471 31.0748 206.01 30.4537 205.369 30.0129C204.728 29.5722 203.926 29.3518 202.965 29.3518C202.243 29.3518 201.612 29.472 201.071 29.7124C200.53 29.9328 200.08 30.2534 199.719 30.6741C199.358 31.0748 199.088 31.5656 198.908 32.1467C198.727 32.7076 198.637 33.3287 198.637 34.0099V36.6545C198.637 38.0168 198.998 39.1388 199.719 40.0203C200.46 40.8818 201.542 41.3126 202.965 41.3126C204.908 41.3126 206.31 40.411 207.172 38.6079L208.915 39.7799C208.414 40.9018 207.663 41.7934 206.661 42.4545C205.679 43.1157 204.447 43.4463 202.965 43.4463Z" fill="#161616"/>
<path d="M87.2207 43.4463C85.5178 43.4463 84.0653 43.1257 82.8632 42.4846C81.6611 41.8234 80.6393 40.9219 79.7979 39.7799L81.6611 38.2172C82.4024 39.1989 83.2238 39.9502 84.1254 40.4711C85.0269 40.972 86.0888 41.2224 87.3109 41.2224C88.8135 41.2224 89.9555 40.8618 90.7368 40.1405C91.5382 39.4193 91.9389 38.4576 91.9389 37.2555C91.9389 36.2538 91.6384 35.4824 91.0374 34.9415C90.4363 34.4006 89.4446 33.9698 88.0622 33.6493L86.3492 33.2586C84.4259 32.8178 82.9533 32.1567 81.9316 31.2751C80.9298 30.3736 80.4289 29.1114 80.4289 27.4886C80.4289 26.567 80.5992 25.7455 80.9398 25.0243C81.2804 24.303 81.7512 23.702 82.3523 23.2212C82.9734 22.7403 83.7046 22.3797 84.5461 22.1393C85.4076 21.8788 86.3492 21.7486 87.371 21.7486C88.9537 21.7486 90.3061 22.0391 91.428 22.6201C92.57 23.2011 93.5317 24.0526 94.313 25.1746L92.4198 26.557C91.8387 25.7556 91.1375 25.1245 90.3161 24.6637C89.4947 24.2029 88.4729 23.9725 87.2508 23.9725C85.9085 23.9725 84.8466 24.263 84.0653 24.844C83.3039 25.405 82.9233 26.2564 82.9233 27.3984C82.9233 28.4002 83.2438 29.1615 83.8849 29.6824C84.5461 30.1832 85.5378 30.5839 86.8601 30.8845L88.5731 31.2751C90.6367 31.7359 92.1292 32.4372 93.0508 33.3788C93.9724 34.3204 94.4332 35.5726 94.4332 37.1353C94.4332 38.097 94.2629 38.9685 93.9224 39.7498C93.6018 40.5312 93.131 41.1923 92.5099 41.7333C91.8888 42.2742 91.1275 42.695 90.2259 42.9955C89.3444 43.296 88.3427 43.4463 87.2207 43.4463Z" stroke="black" stroke-width="0.320026" mask="url(#path-1-outside-1_2054_12)"/>
<path d="M101.377 43.0856C100.535 43.0856 99.8944 42.8552 99.4536 42.3944C99.0329 41.9136 98.8225 41.2925 98.8225 40.5312V29.6824H96.2681V27.5787H97.7106C98.2315 27.5787 98.5821 27.4786 98.7624 27.2782C98.9627 27.0578 99.0629 26.6872 99.0629 26.1663V23.2813H101.227V27.5787H104.623V29.6824H101.227V40.982H104.382V43.0856H101.377Z" stroke="black" stroke-width="0.320026" mask="url(#path-1-outside-1_2054_12)"/>
<path d="M119.155 43.0856C118.254 43.0856 117.603 42.8452 117.202 42.3644C116.821 41.8835 116.581 41.2825 116.481 40.5613H116.33C115.99 41.5229 115.429 42.2442 114.648 42.725C113.866 43.2058 112.935 43.4463 111.853 43.4463C110.21 43.4463 108.928 43.0255 108.006 42.1841C107.104 41.3426 106.654 40.2006 106.654 38.7581C106.654 37.2956 107.185 36.1736 108.246 35.3923C109.328 34.6109 111.001 34.2202 113.265 34.2202H116.33V32.6876C116.33 31.5857 116.03 30.7442 115.429 30.1632C114.828 29.5822 113.906 29.2917 112.664 29.2917C111.722 29.2917 110.931 29.5021 110.29 29.9228C109.669 30.3435 109.148 30.9045 108.727 31.6057L107.285 30.2534C107.705 29.4119 108.377 28.7007 109.298 28.1197C110.22 27.5186 111.382 27.2181 112.784 27.2181C114.668 27.2181 116.13 27.6789 117.172 28.6005C118.214 29.5221 118.735 30.8043 118.735 32.4472V40.982H120.508V43.0856H119.155ZM112.243 41.4027C112.844 41.4027 113.395 41.3326 113.896 41.1923C114.397 41.0521 114.828 40.8518 115.188 40.5913C115.549 40.3309 115.83 40.0303 116.03 39.6897C116.23 39.3491 116.33 38.9785 116.33 38.5778V36.0234H113.145C111.763 36.0234 110.751 36.2237 110.11 36.6244C109.489 37.0251 109.178 37.6061 109.178 38.3674V38.9985C109.178 39.7599 109.449 40.3509 109.989 40.7716C110.55 41.1923 111.302 41.4027 112.243 41.4027Z" stroke="black" stroke-width="0.320026" mask="url(#path-1-outside-1_2054_12)"/>
<path d="M129.108 43.4463C128.026 43.4463 127.054 43.2559 126.193 42.8753C125.331 42.4946 124.6 41.9537 123.999 41.2525C123.418 40.5512 122.967 39.6998 122.647 38.698C122.346 37.6963 122.196 36.5743 122.196 35.3322C122.196 34.09 122.346 32.9681 122.647 31.9663C122.967 30.9646 123.418 30.1131 123.999 29.4119C124.6 28.7107 125.331 28.1698 126.193 27.7891C127.054 27.4084 128.026 27.2181 129.108 27.2181C130.651 27.2181 131.883 27.5587 132.804 28.2399C133.746 28.901 134.447 29.7725 134.908 30.8544L132.895 31.8762C132.614 31.0748 132.153 30.4537 131.512 30.0129C130.871 29.5722 130.07 29.3518 129.108 29.3518C128.387 29.3518 127.756 29.472 127.215 29.7124C126.674 29.9328 126.223 30.2534 125.862 30.6741C125.502 31.0748 125.231 31.5656 125.051 32.1467C124.871 32.7076 124.781 33.3287 124.781 34.0099V36.6545C124.781 38.0168 125.141 39.1388 125.862 40.0203C126.604 40.8818 127.686 41.3126 129.108 41.3126C131.051 41.3126 132.454 40.411 133.315 38.6079L135.058 39.7799C134.557 40.9018 133.806 41.7934 132.804 42.4545C131.823 43.1157 130.591 43.4463 129.108 43.4463Z" stroke="black" stroke-width="0.320026" mask="url(#path-1-outside-1_2054_12)"/>
<path d="M137.851 20.847H140.255V34.9415H140.375L142.75 32.2969L147.137 27.5787H150.052L144.312 33.7094L150.623 43.0856H147.708L142.569 35.1819L140.255 37.556V43.0856H137.851V20.847Z" stroke="black" stroke-width="0.320026" mask="url(#path-1-outside-1_2054_12)"/>
<path d="M157.462 43.4463C156.02 43.4463 154.808 43.1758 153.826 42.6348C152.864 42.0739 152.033 41.3326 151.332 40.411L153.045 39.0286C153.646 39.7899 154.317 40.3809 155.058 40.8017C155.8 41.2024 156.661 41.4027 157.643 41.4027C158.665 41.4027 159.456 41.1823 160.017 40.7416C160.598 40.3008 160.888 39.6797 160.888 38.8783C160.888 38.2773 160.688 37.7664 160.287 37.3457C159.907 36.9049 159.205 36.6044 158.184 36.4441L156.952 36.2638C156.23 36.1636 155.569 36.0134 154.968 35.813C154.367 35.5926 153.836 35.3121 153.375 34.9716C152.935 34.6109 152.584 34.1702 152.324 33.6493C152.083 33.1284 151.963 32.5073 151.963 31.786C151.963 31.0247 152.103 30.3636 152.384 29.8026C152.664 29.2216 153.045 28.7407 153.526 28.3601C154.026 27.9794 154.618 27.6989 155.299 27.5186C155.98 27.3183 156.711 27.2181 157.492 27.2181C158.755 27.2181 159.807 27.4385 160.648 27.8792C161.509 28.32 162.261 28.9311 162.902 29.7124L161.309 31.1549C160.969 30.6741 160.468 30.2433 159.807 29.8627C159.145 29.462 158.314 29.2616 157.312 29.2616C156.31 29.2616 155.549 29.482 155.028 29.9228C154.527 30.3435 154.277 30.9245 154.277 31.6658C154.277 32.4271 154.527 32.9781 155.028 33.3187C155.549 33.6593 156.29 33.9097 157.252 34.07L158.454 34.2503C160.177 34.5108 161.399 35.0116 162.121 35.7529C162.842 36.4742 163.202 37.4258 163.202 38.6079C163.202 40.1105 162.692 41.2925 161.67 42.154C160.648 43.0155 159.246 43.4463 157.462 43.4463Z" stroke="black" stroke-width="0.320026" mask="url(#path-1-outside-1_2054_12)"/>
<path d="M175.876 27.5787H178.25L171.308 46.6919C171.128 47.1527 170.948 47.5333 170.767 47.8339C170.587 48.1544 170.367 48.4049 170.106 48.5852C169.846 48.7655 169.515 48.8957 169.114 48.9759C168.734 49.056 168.263 49.0961 167.702 49.0961H166.47V46.9924H168.904L170.076 43.6867L164.276 27.5787H166.68L170.407 38.127L171.128 40.6514H171.278L172.12 38.127L175.876 27.5787Z" stroke="black" stroke-width="0.320026" mask="url(#path-1-outside-1_2054_12)"/>
<path d="M180.715 43.0856V27.5787H183.119V30.1031H183.24C183.62 29.2216 184.151 28.5204 184.832 27.9995C185.534 27.4786 186.465 27.2181 187.627 27.2181C189.23 27.2181 190.492 27.739 191.414 28.7808C192.355 29.8026 192.826 31.2551 192.826 33.1384V43.0856H190.422V33.5591C190.422 30.7743 189.25 29.3819 186.906 29.3819C186.425 29.3819 185.954 29.442 185.494 29.5622C185.053 29.6824 184.652 29.8627 184.291 30.1031C183.931 30.3435 183.64 30.6541 183.42 31.0347C183.22 31.3953 183.119 31.8261 183.119 32.327V43.0856H180.715Z" stroke="black" stroke-width="0.320026" mask="url(#path-1-outside-1_2054_12)"/>
<path d="M202.965 43.4463C201.883 43.4463 200.911 43.2559 200.05 42.8753C199.188 42.4946 198.457 41.9537 197.856 41.2525C197.275 40.5512 196.824 39.6998 196.503 38.698C196.203 37.6963 196.053 36.5743 196.053 35.3322C196.053 34.09 196.203 32.9681 196.503 31.9663C196.824 30.9646 197.275 30.1131 197.856 29.4119C198.457 28.7107 199.188 28.1698 200.05 27.7891C200.911 27.4084 201.883 27.2181 202.965 27.2181C204.507 27.2181 205.739 27.5587 206.661 28.2399C207.603 28.901 208.304 29.7725 208.765 30.8544L206.751 31.8762C206.471 31.0748 206.01 30.4537 205.369 30.0129C204.728 29.5722 203.926 29.3518 202.965 29.3518C202.243 29.3518 201.612 29.472 201.071 29.7124C200.53 29.9328 200.08 30.2534 199.719 30.6741C199.358 31.0748 199.088 31.5656 198.908 32.1467C198.727 32.7076 198.637 33.3287 198.637 34.0099V36.6545C198.637 38.0168 198.998 39.1388 199.719 40.0203C200.46 40.8818 201.542 41.3126 202.965 41.3126C204.908 41.3126 206.31 40.411 207.172 38.6079L208.915 39.7799C208.414 40.9018 207.663 41.7934 206.661 42.4545C205.679 43.1157 204.447 43.4463 202.965 43.4463Z" stroke="black" stroke-width="0.320026" mask="url(#path-1-outside-1_2054_12)"/>
<path fill-rule="evenodd" clip-rule="evenodd" d="M19.3788 41.5625L10.767 46.4889L30.7002 57.8922L50.629 46.4933L1.18045 18.2021C0.791446 17.9806 0.657306 17.4888 0.880873 17.1078C0.956886 16.9793 1.05973 16.8774 1.18045 16.811L30.2978 0.153431C30.5616 0.00280455 30.8701 0.0160952 31.1116 0.157862L60.22 16.811C60.609 17.0325 60.7431 17.5242 60.5196 17.9052C60.4435 18.0337 60.3407 18.1356 60.22 18.2021L44.7223 27.0669C44.3333 27.2884 43.8415 27.1555 43.6179 26.7745L41.7221 23.5272C41.4985 23.1417 41.6282 22.65 42.0172 22.4285L50.6379 17.4977L30.7002 6.09876L10.7715 17.5021L60.2244 45.7933C60.6135 46.0149 60.7431 46.5066 60.5196 46.892C60.4346 47.0338 60.3183 47.1401 60.1797 47.211L31.1026 63.8464C30.8388 63.997 30.5303 63.9837 30.2888 63.842L1.18045 47.1844C0.791446 46.9629 0.657306 46.4712 0.880873 46.0902C0.956886 45.9617 1.05973 45.8642 1.17598 45.7978L16.6826 36.9241C17.0716 36.7026 17.5679 36.831 17.7915 37.2165L17.8183 37.2652L19.6739 40.4682C19.8975 40.8537 19.7633 41.341 19.3743 41.5625H19.3788Z" fill="#0000EE"/>
<path fill-rule="evenodd" clip-rule="evenodd" d="M19.4535 36.9642L30.7034 43.4013L41.9264 36.9819C41.9532 36.9597 41.9845 36.942 42.0158 36.9243L50.6276 32.0023L42.0158 27.076C41.989 27.0627 41.9622 27.045 41.9398 27.0272L30.7078 20.6034L23.4464 24.759L18.045 21.6711L30.3009 14.6581C30.5782 14.4986 30.9091 14.5208 31.1594 14.6847L44.6316 22.3932C44.6852 22.4154 44.7344 22.442 44.7791 22.473L60.2365 31.3157C60.6255 31.5372 60.7552 32.0289 60.5317 32.4144C60.4556 32.5428 60.3528 32.6403 60.2321 32.7112L44.7344 41.576C44.7076 41.5937 44.6763 41.607 44.6495 41.6203L31.1147 49.3643C30.8509 49.5149 30.5424 49.5016 30.3009 49.3599L29.3664 48.8282L16.7886 41.6336C16.7349 41.6115 16.6857 41.5849 16.641 41.5539L1.17468 32.6935C0.78567 32.4719 0.656001 31.9802 0.879568 31.5948C0.955581 31.4663 1.05842 31.3688 1.17915 31.2979L12.6258 24.7501L18.0361 27.8468L10.7746 31.9979L19.3864 36.9243L19.449 36.9642H19.4535Z" fill="#4589FF"/>
</svg>
